<?xml version="1.0" standalone="no"?>
<!DOCTYPE svg PUBLIC "-//W3C//DTD SVG 20010904//EN"
 "http://www.w3.org/TR/2001/REC-SVG-20010904/DTD/svg10.dtd">
<svg version="1.0" xmlns="http://www.w3.org/2000/svg"
 width="2144.000000pt" height="2144.000000pt" viewBox="0 0 2144.000000 2144.000000"
 preserveAspectRatio="xMidYMid meet">
<metadata>
Created by potrace 1.14, written by Peter Selinger 2001-2017
</metadata>
<g transform="translate(0.000000,2144.000000) scale(0.100000,-0.100000)"
fill="#000000" stroke="none">
<path d="M0 10751 l0 -2689 718 2 717 1 3 135 c1 74 2 140 2 145 -5 233 -4
596 2 613 4 12 4 22 0 22 -9 0 -8 613 2 628 4 7 4 12 -1 12 -4 0 -8 92 -8 205
0 113 4 205 8 205 5 0 5 5 1 12 -11 17 -11 461 -1 476 5 6 6 12 1 12 -5 0 -9
14 -9 30 0 17 4 30 8 30 5 0 5 5 1 12 -10 16 -11 418 -2 424 4 3 4 15 0 27 -6
19 -8 70 -3 125 1 8 10 12 22 10 16 -2 32 -31 75 -138 30 -74 55 -137 55 -140
2 -8 15 -41 32 -83 9 -20 17 -39 17 -42 0 -3 7 -20 15 -39 8 -20 15 -39 15
-44 0 -4 9 -26 19 -48 11 -22 23 -54 27 -70 4 -16 13 -38 20 -49 8 -11 14 -25
14 -31 0 -6 8 -29 17 -50 9 -22 24 -59 33 -84 22 -59 229 -589 240 -615 5 -11
30 -74 55 -140 26 -66 62 -160 81 -210 40 -100 78 -200 90 -230 4 -11 6 -23 6
-27 -1 -5 2 -8 6 -8 4 0 14 -21 22 -47 7 -26 19 -59 27 -73 7 -14 13 -29 13
-33 0 -5 7 -25 16 -45 23 -53 30 -69 57 -142 14 -36 50 -128 80 -205 30 -77
74 -189 97 -250 46 -121 59 -153 82 -205 l15 -35 433 0 c381 -1 433 1 437 15
6 20 17 45 42 102 12 26 21 51 21 54 0 3 6 20 14 37 7 18 33 82 56 142 62 163
110 286 125 320 7 17 21 53 30 80 10 28 22 54 27 60 4 5 8 14 8 21 0 6 8 29
17 50 9 22 17 41 18 44 4 23 41 107 49 112 6 4 8 8 4 8 -8 0 111 309 148 383
8 16 14 36 14 46 0 9 4 21 8 27 5 5 17 32 26 59 10 28 24 64 31 80 18 42 29
69 65 165 18 47 39 99 45 115 12 28 26 64 30 75 1 3 7 18 13 33 7 16 12 30 12
33 0 2 8 23 18 47 25 56 63 150 66 162 2 6 7 19 11 30 58 144 72 185 67 189
-3 3 0 6 6 6 7 0 12 7 12 15 0 8 4 23 9 33 6 9 34 80 64 157 147 379 141 366
162 363 20 -3 20 -11 22 -1538 0 -844 2 -1542 2 -1551 1 -15 66 -16 719 -15
l717 1 0 2685 0 2685 -918 3 c-525 1 -917 -2 -917 -7 0 -5 -8 -26 -17 -47 -9
-22 -17 -41 -17 -44 -1 -4 -46 -113 -81 -195 -8 -16 -39 -93 -70 -170 -31 -77
-66 -160 -77 -185 -11 -24 -21 -49 -22 -55 -2 -5 -9 -26 -17 -45 -9 -19 -26
-62 -40 -95 -13 -33 -28 -63 -32 -66 -5 -3 -8 -8 -7 -10 2 -6 -10 -38 -62
-164 -28 -66 -51 -124 -52 -130 -1 -5 -4 -14 -8 -20 -3 -5 -25 -57 -48 -115
-23 -58 -52 -127 -65 -155 -24 -55 -49 -117 -50 -125 -1 -3 -9 -23 -19 -45 -9
-22 -58 -139 -108 -260 -148 -361 -238 -579 -248 -600 -5 -11 -37 -87 -70
-170 -53 -130 -73 -179 -120 -290 -4 -11 -10 -27 -13 -36 -3 -10 -17 -16 -37
-17 -27 -1 -34 4 -46 34 -8 19 -21 51 -30 72 -10 20 -18 42 -20 47 -3 10 -161
392 -254 615 -15 36 -60 144 -100 240 -39 96 -96 234 -126 306 -30 72 -54 136
-54 142 0 7 -5 12 -10 12 -6 0 -9 3 -8 8 0 4 -2 16 -7 27 -4 11 -19 47 -32 80
-25 62 -31 77 -56 135 -9 19 -25 59 -37 89 -11 30 -30 74 -41 97 -10 24 -19
47 -19 52 0 4 -11 32 -25 60 -14 29 -25 58 -25 65 0 7 -4 17 -8 22 -5 6 -32
69 -61 140 -29 72 -59 144 -66 160 -8 17 -23 54 -35 84 -11 30 -30 75 -42 100
-11 25 -21 50 -22 56 -2 5 -10 28 -20 50 -9 22 -33 78 -52 125 -19 47 -39 94
-44 105 -5 11 -19 44 -31 73 l-21 52 -914 0 -914 0 0 -2689z"/>
<path d="M11785 10753 l0 -2688 723 -1 c482 0 725 3 729 10 4 5 7 1215 7 2688
l1 2678 -730 0 -730 0 0 -2687z"/>
<path d="M18055 13433 c-198 -44 -302 -99 -422 -224 -29 -30 -53 -60 -53 -66
0 -7 -4 -13 -8 -13 -14 0 -80 -133 -101 -205 -31 -107 -35 -143 -27 -263 20
-294 223 -542 516 -633 100 -31 281 -33 384 -5 89 25 188 73 252 124 65 51
143 133 144 150 0 6 4 12 8 12 14 0 80 133 101 205 12 39 23 94 24 123 1 28 6
52 10 52 5 0 6 4 3 8 -2 4 -7 44 -11 87 -7 92 -51 234 -92 297 -16 24 -31 45
-35 46 -5 2 -8 9 -8 16 0 16 -110 124 -166 165 -115 82 -238 122 -389 126 -60
1 -119 1 -130 -2z"/>
<path d="M20518 13435 c-2 -2 -17 -6 -33 -9 -58 -11 -71 -14 -135 -36 -113
-38 -205 -95 -296 -185 -112 -111 -167 -208 -202 -360 -3 -11 -5 -44 -6 -72 0
-29 -5 -53 -9 -53 -5 0 -6 -4 -3 -9 3 -5 8 -32 11 -62 16 -159 100 -318 229
-437 53 -48 165 -122 186 -122 4 0 10 -3 12 -7 4 -10 117 -49 179 -62 44 -10
182 -25 204 -23 6 1 33 3 60 5 126 11 253 52 369 119 74 44 221 181 249 233
84 158 105 235 102 375 -2 58 -5 112 -7 120 -3 8 -10 35 -17 60 -16 60 -58
145 -101 204 -59 82 -249 236 -291 236 -5 0 -9 4 -9 9 0 5 -10 11 -22 14 -13
3 -61 18 -108 33 -71 22 -107 27 -221 30 -76 1 -139 1 -141 -1z"/>
<path d="M14267 13062 c-15 -3 -17 -44 -19 -485 l-3 -482 -255 0 -255 0 0
-525 0 -525 255 0 255 0 2 -90 c2 -49 4 -513 6 -1030 3 -837 6 -949 21 -1025
44 -218 136 -406 264 -537 63 -65 172 -153 189 -153 6 0 13 -4 15 -9 4 -12
115 -67 185 -92 32 -11 65 -23 73 -26 17 -7 15 -6 100 -28 81 -20 99 -23 225
-42 89 -13 602 -9 629 5 5 3 25 6 45 8 55 4 130 16 169 28 9 3 29 8 45 11 69
13 86 17 142 32 33 8 65 16 70 17 39 8 55 19 51 34 -3 9 -8 33 -10 52 -3 19
-10 53 -15 75 -6 22 -12 54 -15 70 -7 36 -11 55 -25 116 -6 25 -13 61 -15 80
-3 19 -15 75 -26 124 -12 50 -23 103 -25 119 -2 15 -7 37 -11 48 -3 11 -7 30
-9 41 -3 19 -37 188 -52 255 -4 16 -10 21 -23 17 -10 -3 -31 -7 -46 -10 -29
-3 -67 -10 -114 -20 -56 -12 -183 -6 -236 11 -66 21 -116 73 -133 140 -8 31
-12 300 -12 905 0 472 2 863 5 867 2 4 156 7 341 7 216 0 339 3 343 10 12 18
9 1034 -3 1038 -5 2 -162 3 -347 3 l-338 -1 -1 65 c0 36 0 253 1 483 l0 417
-27 1 c-111 2 -1403 3 -1416 1z"/>
<path d="M6955 12090 c-6 -11 3 -2749 10 -2795 8 -54 29 -166 43 -230 38 -172
147 -396 267 -551 42 -55 184 -196 225 -224 19 -13 37 -27 40 -31 10 -12 135
-86 203 -118 59 -28 160 -65 207 -77 8 -2 42 -10 75 -18 33 -8 87 -18 120 -23
70 -9 392 -10 449 0 21 3 57 9 79 13 23 3 45 8 50 11 4 3 18 6 30 8 49 6 197
60 277 100 230 116 409 295 520 519 28 57 52 110 54 118 3 23 17 38 35 38 18
0 19 -17 19 -337 0 -186 1 -359 1 -384 l1 -47 688 1 c378 0 689 4 692 8 4 5 5
3998 1 4019 -1 3 -328 5 -728 5 l-728 0 -1 -1175 c0 -646 -4 -1200 -9 -1230
-4 -30 -8 -57 -8 -60 0 -20 -43 -124 -71 -174 -95 -168 -275 -266 -489 -268
-195 -1 -322 46 -434 160 -18 19 -33 37 -33 41 0 4 -9 16 -20 26 -11 10 -17
22 -14 26 3 5 1 9 -3 9 -7 0 -18 20 -38 70 -16 42 -34 107 -44 170 -5 31 -10
557 -10 1225 0 644 -1 1172 -1 1175 0 7 -1451 7 -1455 0z"/>
<path d="M17462 11202 c-21 -3 -24 -8 -20 -43 2 -21 0 -39 -5 -39 -4 0 -5 -4
-2 -10 3 -5 6 -33 5 -62 0 -29 0 -91 0 -138 1 -47 1 -92 1 -100 -2 -127 -1
-182 4 -190 3 -6 3 -10 -2 -10 -6 0 -9 -112 -2 -130 1 -3 1 -8 0 -12 0 -6 -1
-88 -1 -133 1 -11 1 -72 1 -135 0 -63 0 -122 0 -130 0 -8 -1 -68 -1 -133 -1
-64 2 -122 5 -127 3 -6 3 -10 -2 -10 -4 0 -7 -26 -5 -57 4 -77 4 -67 2 -160
-1 -45 1 -87 5 -93 3 -5 3 -10 -2 -10 -4 0 -7 -26 -5 -57 1 -32 3 -62 3 -68 0
-5 1 -57 0 -115 0 -58 0 -112 0 -120 0 -17 0 -194 0 -225 -1 -11 -1 -57 -1
-103 -1 -45 2 -87 5 -92 3 -6 3 -10 -2 -10 -6 0 -9 -112 -2 -130 1 -3 1 -8 0
-12 0 -6 -1 -88 -1 -133 2 -127 1 -299 -1 -313 -1 -4 -1 -28 0 -54 l1 -48 719
0 719 0 4 34 c2 19 1 42 -2 52 -4 10 -4 32 0 48 3 17 3 48 -1 69 -3 20 -3 37
1 37 3 0 4 22 0 49 -3 27 -3 57 0 67 4 10 4 33 0 51 -4 18 -5 34 -3 37 7 7 9
106 3 106 -3 0 -3 36 0 80 3 45 2 88 -1 97 -3 10 -3 31 1 47 3 17 3 48 -1 69
-3 20 -3 37 1 37 3 0 4 22 0 49 -3 27 -3 57 0 67 4 10 4 33 0 51 -4 18 -5 34
-3 37 7 7 9 106 3 106 -6 0 -3 129 4 146 3 8 1 16 -3 18 -5 3 -5 24 -1 46 4
22 4 40 0 40 -4 0 -4 18 0 40 4 23 3 40 -2 40 -5 0 -6 5 -3 11 9 13 8 205 0
219 -3 5 -3 10 2 10 4 0 8 20 8 45 0 25 -2 45 -5 45 -3 0 -5 34 -5 75 0 41 2
75 5 75 3 0 5 20 5 45 0 25 -3 45 -6 45 -3 0 -3 19 1 43 3 23 3 58 -1 77 -4
19 -4 41 1 49 4 8 4 26 0 41 -4 15 -4 33 0 40 4 7 4 25 0 40 -4 15 -4 33 0 40
4 7 4 25 0 41 -5 15 -5 30 -2 34 7 7 4 133 -4 146 -3 5 -2 9 3 9 8 0 7 114 -1
137 -3 7 -2 15 3 17 4 3 5 25 2 48 -4 24 -4 60 0 80 3 20 3 42 -1 48 -4 7 -4
26 0 43 3 18 3 46 -1 63 -3 18 -3 37 1 44 11 18 -4 65 -21 65 -8 0 -19 3 -24
7 -6 4 -17 3 -24 -2 -8 -4 -27 -4 -42 0 -16 5 -29 5 -29 0 0 -5 -13 -5 -30 0
-17 5 -30 5 -30 0 0 -5 -13 -5 -30 0 -17 5 -30 5 -30 0 0 -5 -13 -5 -30 0 -17
5 -30 5 -30 0 0 -5 -13 -5 -30 0 -17 5 -30 5 -30 0 0 -5 -13 -5 -30 0 -17 5
-30 5 -30 0 0 -5 -13 -5 -30 0 -17 5 -30 5 -30 0 0 -5 -13 -5 -30 0 -17 5 -30
5 -30 0 0 -5 -13 -5 -30 0 -17 5 -30 5 -30 0 0 -5 -13 -5 -30 0 -17 5 -30 5
-30 0 0 -5 -13 -5 -30 0 -17 5 -30 5 -30 0 0 -5 -13 -5 -30 0 -17 5 -30 5 -30
0 0 -5 -13 -5 -30 0 -17 5 -30 5 -30 0 0 -5 -13 -5 -30 0 -17 5 -30 5 -30 0 0
-5 -13 -5 -30 0 -17 5 -30 5 -30 0 0 -5 -13 -5 -30 0 -17 5 -30 5 -30 0 0 -5
-13 -5 -30 0 -17 5 -30 5 -30 0 0 -5 -13 -5 -30 0 -17 5 -30 5 -30 0 0 -5 -13
-5 -30 0 -17 5 -30 5 -30 0 0 -5 -13 -5 -30 0 -17 5 -30 5 -30 0 0 -5 -13 -5
-30 0 -17 5 -30 5 -30 0 0 -5 -12 -5 -27 -1 -16 4 -39 5 -51 3z"/>
<path d="M20035 11200 c-25 -4 -31 -11 -36 -43 -3 -20 -3 -37 1 -37 4 0 4 -18
0 -40 -4 -22 -4 -58 0 -80 4 -22 5 -40 1 -40 -7 0 -4 -205 3 -232 2 -10 1 -18
-4 -18 -4 0 -4 -18 0 -40 4 -22 4 -40 0 -40 -4 0 -4 -18 0 -40 4 -22 4 -40 0
-40 -4 0 -4 -18 0 -40 4 -22 5 -40 1 -40 -3 0 -5 -30 -4 -67 1 -38 2 -79 3
-93 0 -14 0 -69 0 -123 0 -54 2 -102 5 -108 4 -5 2 -9 -3 -9 -5 0 -6 -17 -2
-40 4 -22 4 -40 0 -40 -4 0 -4 -17 0 -37 3 -21 3 -55 -1 -75 -3 -21 -3 -38 1
-38 4 0 4 -18 0 -40 -4 -22 -4 -58 0 -80 4 -22 5 -40 1 -40 -7 0 -4 -205 3
-232 2 -10 1 -18 -4 -18 -4 0 -4 -18 0 -40 4 -22 4 -40 0 -40 -4 0 -4 -18 0
-40 4 -22 4 -40 0 -40 -4 0 -4 -18 0 -40 4 -22 5 -40 1 -40 -3 0 -5 -30 -4
-67 1 -38 2 -79 3 -93 0 -14 0 -69 0 -123 0 -54 2 -102 5 -108 4 -5 2 -9 -3
-9 -5 0 -6 -17 -2 -40 4 -22 4 -40 0 -40 -4 0 -4 -17 -1 -37 4 -21 4 -55 1
-75 -4 -21 -4 -38 0 -38 4 0 4 -18 0 -40 -4 -22 -4 -58 0 -80 4 -22 5 -40 1
-40 -7 0 -4 -205 3 -232 2 -10 1 -18 -4 -18 -4 0 -4 -18 0 -40 4 -22 4 -40 1
-40 -4 0 -5 -16 -3 -35 l4 -35 719 0 719 0 -2 1597 -3 1597 -27 7 c-16 4 -28
3 -28 -1 0 -5 -13 -5 -30 0 -17 5 -30 5 -30 0 0 -5 -13 -5 -30 0 -17 5 -30 5
-30 0 0 -5 -13 -5 -30 0 -17 5 -30 5 -30 0 0 -5 -13 -5 -30 0 -17 5 -30 5 -30
0 0 -5 -13 -5 -30 0 -17 5 -30 5 -30 0 0 -5 -13 -5 -30 0 -17 5 -30 5 -30 0 0
-5 -13 -5 -30 0 -17 5 -30 5 -30 0 0 -5 -13 -5 -30 0 -17 5 -30 5 -30 0 0 -5
-13 -5 -30 0 -17 5 -30 5 -30 0 0 -5 -13 -5 -30 0 -17 5 -30 5 -30 0 0 -5 -13
-5 -30 0 -17 5 -30 5 -30 0 0 -5 -13 -5 -30 0 -17 5 -30 5 -30 0 0 -5 -13 -5
-30 0 -17 5 -30 5 -30 0 0 -5 -13 -5 -30 0 -17 5 -30 5 -30 0 0 -5 -13 -5 -30
0 -17 5 -30 5 -30 0 0 -5 -13 -5 -30 0 -17 5 -30 5 -30 0 0 -5 -13 -5 -30 0
-17 5 -30 5 -30 0 0 -5 -13 -5 -30 0 -17 5 -30 5 -30 0 0 -5 -13 -5 -30 0 -17
5 -32 5 -35 0 -3 -5 -15 -6 -28 -1 -13 5 -30 5 -38 1 -8 -5 -21 -5 -28 0 -8 4
-26 4 -42 0 -15 -5 -29 -5 -31 -1 -2 4 -16 4 -33 1z"/>
</g>
</svg>
